<mxfile host="65bd71144e">
    <diagram id="wSAOKW1ijZD0jISA76HF" name="Page-1">
        <mxGraphModel dx="757" dy="415" grid="1" gridSize="10" guides="1" tooltips="1" connect="1" arrows="1" fold="1" page="1" pageScale="1" pageWidth="1169" pageHeight="827" background="none" math="0" shadow="0">
            <root>
                <mxCell id="0"/>
                <mxCell id="1" parent="0"/>
                <mxCell id="15" style="edgeStyle=none;html=1;entryX=0.5;entryY=0;entryDx=0;entryDy=0;" parent="1" source="2" target="11" edge="1">
                    <mxGeometry relative="1" as="geometry"/>
                </mxCell>
                <mxCell id="2" value="Start" style="ellipse;whiteSpace=wrap;html=1;" parent="1" vertex="1">
                    <mxGeometry x="190" y="80" width="220" height="80" as="geometry"/>
                </mxCell>
                <mxCell id="17" style="edgeStyle=none;html=1;entryX=0.5;entryY=0;entryDx=0;entryDy=0;" parent="1" source="4" target="10" edge="1">
                    <mxGeometry relative="1" as="geometry"/>
                </mxCell>
                <mxCell id="4" value="&lt;i&gt;Заполнение массива строк пользователем&amp;nbsp;&lt;br&gt;&lt;/i&gt;метод void FillArray" style="shape=process;whiteSpace=wrap;html=1;backgroundOutline=1;" parent="1" vertex="1">
                    <mxGeometry x="150" y="280" width="300" height="60" as="geometry"/>
                </mxCell>
                <mxCell id="18" style="edgeStyle=none;html=1;entryX=0.5;entryY=0;entryDx=0;entryDy=0;" parent="1" source="10" target="13" edge="1">
                    <mxGeometry relative="1" as="geometry"/>
                </mxCell>
                <mxCell id="10" value="&lt;i&gt;Вывод на консоль массива Array &lt;/i&gt;&lt;br&gt;метод void PrintArray" style="shape=process;whiteSpace=wrap;html=1;backgroundOutline=1;" parent="1" vertex="1">
                    <mxGeometry x="150" y="370" width="300" height="60" as="geometry"/>
                </mxCell>
                <mxCell id="16" style="edgeStyle=none;html=1;entryX=0.5;entryY=0;entryDx=0;entryDy=0;" parent="1" source="11" target="4" edge="1">
                    <mxGeometry relative="1" as="geometry"/>
                </mxCell>
                <mxCell id="11" value="&lt;i&gt;Создание массива &lt;/i&gt;&lt;br&gt;string [ ] StringArray&amp;nbsp;" style="rounded=0;whiteSpace=wrap;html=1;" parent="1" vertex="1">
                    <mxGeometry x="150" y="190" width="300" height="60" as="geometry"/>
                </mxCell>
                <mxCell id="19" style="edgeStyle=none;html=1;entryX=0.5;entryY=0;entryDx=0;entryDy=0;" parent="1" source="13" target="14" edge="1">
                    <mxGeometry relative="1" as="geometry"/>
                </mxCell>
                <mxCell id="13" value="&lt;i&gt;Создание и заполнение нового массива&amp;nbsp;&lt;br&gt;string [ ] NewStringArray&lt;/i&gt;&lt;br&gt;методом FillNewArray" style="shape=process;whiteSpace=wrap;html=1;backgroundOutline=1;" parent="1" vertex="1">
                    <mxGeometry x="150" y="460" width="300" height="60" as="geometry"/>
                </mxCell>
                <mxCell id="21" value="" style="edgeStyle=none;html=1;" parent="1" source="14" target="20" edge="1">
                    <mxGeometry relative="1" as="geometry"/>
                </mxCell>
                <mxCell id="14" value="&lt;i&gt;Вывод на консоль &lt;br&gt;массива NewStringArray []&lt;br&gt;&lt;/i&gt;метод void PrintArray" style="shape=process;whiteSpace=wrap;html=1;backgroundOutline=1;" parent="1" vertex="1">
                    <mxGeometry x="150" y="550" width="300" height="60" as="geometry"/>
                </mxCell>
                <mxCell id="20" value="End" style="ellipse;whiteSpace=wrap;html=1;" parent="1" vertex="1">
                    <mxGeometry x="190" y="645" width="220" height="65" as="geometry"/>
                </mxCell>
                <mxCell id="22" value="Метод Main (общая схема)" style="text;html=1;align=center;verticalAlign=middle;resizable=0;points=[];autosize=1;strokeColor=none;fillColor=none;" parent="1" vertex="1">
                    <mxGeometry x="220" y="40" width="160" height="20" as="geometry"/>
                </mxCell>
                <mxCell id="26" value="Метод string [ ] FillNewArray" style="text;html=1;align=center;verticalAlign=middle;resizable=0;points=[];autosize=1;strokeColor=none;fillColor=none;" parent="1" vertex="1">
                    <mxGeometry x="605" y="40" width="170" height="20" as="geometry"/>
                </mxCell>
                <mxCell id="35" style="edgeStyle=none;html=1;entryX=0.5;entryY=0;entryDx=0;entryDy=0;" parent="1" source="27" target="29" edge="1">
                    <mxGeometry relative="1" as="geometry"/>
                </mxCell>
                <mxCell id="27" value="Start" style="ellipse;whiteSpace=wrap;html=1;" parent="1" vertex="1">
                    <mxGeometry x="570" y="80" width="240" height="80" as="geometry"/>
                </mxCell>
                <mxCell id="36" style="edgeStyle=none;html=1;entryX=0.5;entryY=0;entryDx=0;entryDy=0;" parent="1" source="29" target="30" edge="1">
                    <mxGeometry relative="1" as="geometry"/>
                </mxCell>
                <mxCell id="56" style="edgeStyle=none;html=1;dashed=1;endArrow=none;endFill=0;" parent="1" source="29" target="54" edge="1">
                    <mxGeometry relative="1" as="geometry"/>
                </mxCell>
                <mxCell id="29" value="string [ ] array" style="shape=rectangle;perimeter=parallelogramPerimeter;whiteSpace=wrap;html=1;fixedSize=1;" parent="1" vertex="1">
                    <mxGeometry x="580" y="190" width="220" height="60" as="geometry"/>
                </mxCell>
                <mxCell id="37" style="edgeStyle=none;html=1;entryX=0.5;entryY=0;entryDx=0;entryDy=0;" parent="1" source="30" target="31" edge="1">
                    <mxGeometry relative="1" as="geometry"/>
                </mxCell>
                <mxCell id="30" value="newArray [ array.Length ]&lt;br&gt;int i = 0&lt;br&gt;int count = 0" style="rounded=0;whiteSpace=wrap;html=1;" parent="1" vertex="1">
                    <mxGeometry x="570" y="280" width="240" height="60" as="geometry"/>
                </mxCell>
                <mxCell id="38" style="edgeStyle=none;html=1;entryX=0.5;entryY=0;entryDx=0;entryDy=0;" parent="1" source="31" target="32" edge="1">
                    <mxGeometry relative="1" as="geometry"/>
                </mxCell>
                <mxCell id="48" style="edgeStyle=none;html=1;entryX=0;entryY=0.5;entryDx=0;entryDy=0;" parent="1" source="31" edge="1">
                    <mxGeometry relative="1" as="geometry">
                        <mxPoint x="870" y="420" as="targetPoint"/>
                    </mxGeometry>
                </mxCell>
                <mxCell id="31" value="while ( i &amp;lt; array.Length )" style="rhombus;whiteSpace=wrap;html=1;" parent="1" vertex="1">
                    <mxGeometry x="570" y="370" width="240" height="100" as="geometry"/>
                </mxCell>
                <mxCell id="39" style="edgeStyle=none;html=1;entryX=0.5;entryY=0;entryDx=0;entryDy=0;" parent="1" source="32" target="34" edge="1">
                    <mxGeometry relative="1" as="geometry"/>
                </mxCell>
                <mxCell id="44" style="edgeStyle=none;html=1;exitX=1;exitY=0.5;exitDx=0;exitDy=0;entryX=1;entryY=0.5;entryDx=0;entryDy=0;" parent="1" source="32" target="33" edge="1">
                    <mxGeometry relative="1" as="geometry">
                        <Array as="points">
                            <mxPoint x="850" y="550"/>
                            <mxPoint x="870" y="550"/>
                            <mxPoint x="870" y="770"/>
                        </Array>
                    </mxGeometry>
                </mxCell>
                <mxCell id="32" value="if ( array[ i ].Length &amp;lt;= 3)" style="rhombus;whiteSpace=wrap;html=1;" parent="1" vertex="1">
                    <mxGeometry x="570" y="500" width="240" height="100" as="geometry"/>
                </mxCell>
                <mxCell id="43" style="edgeStyle=none;html=1;entryX=0;entryY=0.5;entryDx=0;entryDy=0;exitX=0;exitY=0.5;exitDx=0;exitDy=0;" parent="1" source="33" target="31" edge="1">
                    <mxGeometry relative="1" as="geometry">
                        <mxPoint x="540" y="770" as="targetPoint"/>
                        <Array as="points">
                            <mxPoint x="510" y="770"/>
                            <mxPoint x="510" y="600"/>
                            <mxPoint x="510" y="420"/>
                        </Array>
                    </mxGeometry>
                </mxCell>
                <mxCell id="33" value="i++" style="rounded=0;whiteSpace=wrap;html=1;" parent="1" vertex="1">
                    <mxGeometry x="590" y="740" width="200" height="60" as="geometry"/>
                </mxCell>
                <mxCell id="40" style="edgeStyle=none;html=1;entryX=0.5;entryY=0;entryDx=0;entryDy=0;" parent="1" source="34" target="33" edge="1">
                    <mxGeometry relative="1" as="geometry"/>
                </mxCell>
                <mxCell id="34" value="newArray[count] = array [ i ]&lt;br&gt;count++" style="rounded=0;whiteSpace=wrap;html=1;" parent="1" vertex="1">
                    <mxGeometry x="570" y="640" width="240" height="60" as="geometry"/>
                </mxCell>
                <mxCell id="45" value="Нет" style="text;html=1;strokeColor=none;fillColor=none;align=center;verticalAlign=middle;whiteSpace=wrap;rounded=0;" parent="1" vertex="1">
                    <mxGeometry x="810" y="520" width="60" height="30" as="geometry"/>
                </mxCell>
                <mxCell id="46" value="Да" style="text;html=1;align=center;verticalAlign=middle;resizable=0;points=[];autosize=1;strokeColor=none;fillColor=none;" parent="1" vertex="1">
                    <mxGeometry x="650" y="610" width="30" height="20" as="geometry"/>
                </mxCell>
                <mxCell id="47" value="Да" style="text;html=1;align=center;verticalAlign=middle;resizable=0;points=[];autosize=1;strokeColor=none;fillColor=none;" parent="1" vertex="1">
                    <mxGeometry x="650" y="470" width="30" height="20" as="geometry"/>
                </mxCell>
                <mxCell id="49" value="Нет" style="text;html=1;strokeColor=none;fillColor=none;align=center;verticalAlign=middle;whiteSpace=wrap;rounded=0;" parent="1" vertex="1">
                    <mxGeometry x="800" y="385" width="60" height="30" as="geometry"/>
                </mxCell>
                <mxCell id="ltl6ZxcUgtwh3g2k5Yl9-57" style="edgeStyle=none;html=1;startArrow=none;startFill=0;endArrow=classic;endFill=1;" parent="1" target="ltl6ZxcUgtwh3g2k5Yl9-56" edge="1">
                    <mxGeometry relative="1" as="geometry">
                        <mxPoint x="980" y="450" as="sourcePoint"/>
                    </mxGeometry>
                </mxCell>
                <mxCell id="51" value="Array.Resize (ref newArray, count)&lt;br&gt;return newArray" style="rounded=0;whiteSpace=wrap;html=1;" parent="1" vertex="1">
                    <mxGeometry x="870" y="390" width="220" height="60" as="geometry"/>
                </mxCell>
                <mxCell id="54" value="Зададим аргумент метода" style="text;html=1;align=center;verticalAlign=middle;resizable=0;points=[];autosize=1;strokeColor=none;fillColor=none;" parent="1" vertex="1">
                    <mxGeometry x="840" y="210" width="160" height="20" as="geometry"/>
                </mxCell>
                <mxCell id="ltl6ZxcUgtwh3g2k5Yl9-56" value="End" style="ellipse;whiteSpace=wrap;html=1;" parent="1" vertex="1">
                    <mxGeometry x="920" y="500" width="120" height="80" as="geometry"/>
                </mxCell>
                <mxCell id="76cnObDftU9fyBYGmjV7-56" value="" style="endArrow=none;html=1;" parent="1" edge="1">
                    <mxGeometry width="50" height="50" relative="1" as="geometry">
                        <mxPoint x="840" y="260" as="sourcePoint"/>
                        <mxPoint x="840" y="200" as="targetPoint"/>
                    </mxGeometry>
                </mxCell>
                <mxCell id="76cnObDftU9fyBYGmjV7-57" value="" style="endArrow=none;html=1;" parent="1" edge="1">
                    <mxGeometry width="50" height="50" relative="1" as="geometry">
                        <mxPoint x="840" y="200" as="sourcePoint"/>
                        <mxPoint x="860" y="200" as="targetPoint"/>
                    </mxGeometry>
                </mxCell>
                <mxCell id="76cnObDftU9fyBYGmjV7-60" value="" style="endArrow=none;html=1;" parent="1" edge="1">
                    <mxGeometry width="50" height="50" relative="1" as="geometry">
                        <mxPoint x="840" y="260" as="sourcePoint"/>
                        <mxPoint x="860" y="260" as="targetPoint"/>
                    </mxGeometry>
                </mxCell>
            </root>
        </mxGraphModel>
    </diagram>
    <diagram id="6cuzmx8iKEIpyiXLH8jP" name="Page-2">
        <mxGraphModel dx="757" dy="415" grid="1" gridSize="10" guides="1" tooltips="1" connect="1" arrows="1" fold="1" page="1" pageScale="1" pageWidth="1169" pageHeight="827" background="none" math="0" shadow="0">
            <root>
                <mxCell id="YF1NSrzZtT_zNt7OF7iu-0"/>
                <mxCell id="YF1NSrzZtT_zNt7OF7iu-1" parent="YF1NSrzZtT_zNt7OF7iu-0"/>
                <mxCell id="UCqdVQhek8tJfHu0YXHY-0" value="Метод void FillArray" style="text;html=1;align=center;verticalAlign=middle;resizable=0;points=[];autosize=1;strokeColor=none;fillColor=none;" parent="YF1NSrzZtT_zNt7OF7iu-1" vertex="1">
                    <mxGeometry x="350" y="80" width="120" height="20" as="geometry"/>
                </mxCell>
                <mxCell id="byx2bBYeRYPRY1nTa8dd-2" style="edgeStyle=none;html=1;entryX=0.5;entryY=0;entryDx=0;entryDy=0;startArrow=none;startFill=0;endArrow=classic;endFill=1;" parent="YF1NSrzZtT_zNt7OF7iu-1" source="UCqdVQhek8tJfHu0YXHY-1" target="UCqdVQhek8tJfHu0YXHY-2" edge="1">
                    <mxGeometry relative="1" as="geometry"/>
                </mxCell>
                <mxCell id="UCqdVQhek8tJfHu0YXHY-1" value="Start" style="ellipse;whiteSpace=wrap;html=1;" parent="YF1NSrzZtT_zNt7OF7iu-1" vertex="1">
                    <mxGeometry x="300" y="110" width="200" height="70" as="geometry"/>
                </mxCell>
                <mxCell id="byx2bBYeRYPRY1nTa8dd-3" style="edgeStyle=none;html=1;entryX=0.5;entryY=0;entryDx=0;entryDy=0;startArrow=none;startFill=0;endArrow=classic;endFill=1;" parent="YF1NSrzZtT_zNt7OF7iu-1" source="UCqdVQhek8tJfHu0YXHY-2" target="UCqdVQhek8tJfHu0YXHY-4" edge="1">
                    <mxGeometry relative="1" as="geometry"/>
                </mxCell>
                <mxCell id="UCqdVQhek8tJfHu0YXHY-2" value="&lt;i&gt;Задаем аргумент метода:&lt;/i&gt;&lt;br&gt;string [ ] array" style="shape=ractangle;perimeter=parallelogramPerimeter;whiteSpace=wrap;html=1;fixedSize=1;" parent="YF1NSrzZtT_zNt7OF7iu-1" vertex="1">
                    <mxGeometry x="300" y="220" width="200" height="60" as="geometry"/>
                </mxCell>
                <mxCell id="byx2bBYeRYPRY1nTa8dd-4" style="edgeStyle=none;html=1;entryX=0.5;entryY=0;entryDx=0;entryDy=0;startArrow=none;startFill=0;endArrow=classic;endFill=1;" parent="YF1NSrzZtT_zNt7OF7iu-1" source="UCqdVQhek8tJfHu0YXHY-4" target="h-E2m09l0MoIwetDSpGT-0" edge="1">
                    <mxGeometry relative="1" as="geometry"/>
                </mxCell>
                <mxCell id="byx2bBYeRYPRY1nTa8dd-10" style="edgeStyle=none;html=1;entryX=1;entryY=0.5;entryDx=0;entryDy=0;startArrow=none;startFill=0;endArrow=classic;endFill=1;" parent="YF1NSrzZtT_zNt7OF7iu-1" source="UCqdVQhek8tJfHu0YXHY-4" target="byx2bBYeRYPRY1nTa8dd-9" edge="1">
                    <mxGeometry relative="1" as="geometry">
                        <Array as="points">
                            <mxPoint x="550" y="370"/>
                            <mxPoint x="550" y="610"/>
                        </Array>
                    </mxGeometry>
                </mxCell>
                <mxCell id="UCqdVQhek8tJfHu0YXHY-4" value="for (int i = 0; i &amp;lt; array.Length; i++)" style="shape=hexagon;perimeter=hexagonPerimeter2;whiteSpace=wrap;html=1;fixedSize=1;" parent="YF1NSrzZtT_zNt7OF7iu-1" vertex="1">
                    <mxGeometry x="300" y="330" width="200" height="80" as="geometry"/>
                </mxCell>
                <mxCell id="byx2bBYeRYPRY1nTa8dd-5" style="edgeStyle=none;html=1;entryX=0;entryY=0.5;entryDx=0;entryDy=0;startArrow=none;startFill=0;endArrow=classic;endFill=1;exitX=0;exitY=0.5;exitDx=0;exitDy=0;" parent="YF1NSrzZtT_zNt7OF7iu-1" source="h-E2m09l0MoIwetDSpGT-0" target="UCqdVQhek8tJfHu0YXHY-4" edge="1">
                    <mxGeometry relative="1" as="geometry">
                        <Array as="points">
                            <mxPoint x="250" y="490"/>
                            <mxPoint x="250" y="370"/>
                        </Array>
                    </mxGeometry>
                </mxCell>
                <mxCell id="h-E2m09l0MoIwetDSpGT-0" value="&lt;i&gt;последовательный ввод каждого элемента массива:&lt;/i&gt;&lt;br&gt;array [ i ]" style="shape=parallelogram;perimeter=parallelogramPerimeter;whiteSpace=wrap;html=1;fixedSize=1;" parent="YF1NSrzZtT_zNt7OF7iu-1" vertex="1">
                    <mxGeometry x="280" y="460" width="240" height="60" as="geometry"/>
                </mxCell>
                <mxCell id="byx2bBYeRYPRY1nTa8dd-6" value="Да" style="text;html=1;strokeColor=none;fillColor=none;align=center;verticalAlign=middle;whiteSpace=wrap;rounded=0;" parent="YF1NSrzZtT_zNt7OF7iu-1" vertex="1">
                    <mxGeometry x="330" y="420" width="60" height="30" as="geometry"/>
                </mxCell>
                <mxCell id="byx2bBYeRYPRY1nTa8dd-7" value="Нет" style="text;html=1;strokeColor=none;fillColor=none;align=center;verticalAlign=middle;whiteSpace=wrap;rounded=0;" parent="YF1NSrzZtT_zNt7OF7iu-1" vertex="1">
                    <mxGeometry x="490" y="330" width="60" height="30" as="geometry"/>
                </mxCell>
                <mxCell id="byx2bBYeRYPRY1nTa8dd-9" value="End" style="ellipse;whiteSpace=wrap;html=1;" parent="YF1NSrzZtT_zNt7OF7iu-1" vertex="1">
                    <mxGeometry x="340" y="570" width="120" height="80" as="geometry"/>
                </mxCell>
                <mxCell id="kDRodgGSKjIkdje-eJfW-0" value="Метод&amp;nbsp; void PrintArray" style="text;html=1;align=center;verticalAlign=middle;resizable=0;points=[];autosize=1;strokeColor=none;fillColor=none;" parent="YF1NSrzZtT_zNt7OF7iu-1" vertex="1">
                    <mxGeometry x="780" y="80" width="140" height="20" as="geometry"/>
                </mxCell>
                <mxCell id="kDRodgGSKjIkdje-eJfW-1" style="edgeStyle=none;html=1;entryX=0.5;entryY=0;entryDx=0;entryDy=0;startArrow=none;startFill=0;endArrow=classic;endFill=1;" parent="YF1NSrzZtT_zNt7OF7iu-1" source="kDRodgGSKjIkdje-eJfW-2" target="kDRodgGSKjIkdje-eJfW-4" edge="1">
                    <mxGeometry relative="1" as="geometry"/>
                </mxCell>
                <mxCell id="kDRodgGSKjIkdje-eJfW-2" value="Start" style="ellipse;whiteSpace=wrap;html=1;" parent="YF1NSrzZtT_zNt7OF7iu-1" vertex="1">
                    <mxGeometry x="740" y="110" width="200" height="70" as="geometry"/>
                </mxCell>
                <mxCell id="kDRodgGSKjIkdje-eJfW-3" style="edgeStyle=none;html=1;entryX=0.5;entryY=0;entryDx=0;entryDy=0;startArrow=none;startFill=0;endArrow=classic;endFill=1;" parent="YF1NSrzZtT_zNt7OF7iu-1" source="kDRodgGSKjIkdje-eJfW-4" target="kDRodgGSKjIkdje-eJfW-7" edge="1">
                    <mxGeometry relative="1" as="geometry"/>
                </mxCell>
                <mxCell id="kDRodgGSKjIkdje-eJfW-4" value="&lt;i&gt;Задаем аргумент метода:&lt;/i&gt;&lt;br&gt;string [ ] array" style="shape=ractangle;perimeter=parallelogramPerimeter;whiteSpace=wrap;html=1;fixedSize=1;" parent="YF1NSrzZtT_zNt7OF7iu-1" vertex="1">
                    <mxGeometry x="740" y="220" width="200" height="60" as="geometry"/>
                </mxCell>
                <mxCell id="kDRodgGSKjIkdje-eJfW-5" style="edgeStyle=none;html=1;entryX=0.5;entryY=0;entryDx=0;entryDy=0;startArrow=none;startFill=0;endArrow=classic;endFill=1;" parent="YF1NSrzZtT_zNt7OF7iu-1" source="kDRodgGSKjIkdje-eJfW-7" target="kDRodgGSKjIkdje-eJfW-9" edge="1">
                    <mxGeometry relative="1" as="geometry"/>
                </mxCell>
                <mxCell id="kDRodgGSKjIkdje-eJfW-6" style="edgeStyle=none;html=1;startArrow=none;startFill=0;endArrow=classic;endFill=1;" parent="YF1NSrzZtT_zNt7OF7iu-1" source="kDRodgGSKjIkdje-eJfW-7" edge="1">
                    <mxGeometry relative="1" as="geometry">
                        <mxPoint x="900" y="610" as="targetPoint"/>
                        <Array as="points">
                            <mxPoint x="990" y="370"/>
                            <mxPoint x="990" y="610"/>
                        </Array>
                    </mxGeometry>
                </mxCell>
                <mxCell id="kDRodgGSKjIkdje-eJfW-7" value="for (int i = 0; i &amp;lt; array.Length; i++)" style="shape=hexagon;perimeter=hexagonPerimeter2;whiteSpace=wrap;html=1;fixedSize=1;" parent="YF1NSrzZtT_zNt7OF7iu-1" vertex="1">
                    <mxGeometry x="740" y="330" width="200" height="80" as="geometry"/>
                </mxCell>
                <mxCell id="kDRodgGSKjIkdje-eJfW-8" style="edgeStyle=none;html=1;entryX=0;entryY=0.5;entryDx=0;entryDy=0;startArrow=none;startFill=0;endArrow=classic;endFill=1;exitX=0;exitY=0.5;exitDx=0;exitDy=0;" parent="YF1NSrzZtT_zNt7OF7iu-1" source="kDRodgGSKjIkdje-eJfW-9" target="kDRodgGSKjIkdje-eJfW-7" edge="1">
                    <mxGeometry relative="1" as="geometry">
                        <Array as="points">
                            <mxPoint x="690" y="500"/>
                            <mxPoint x="690" y="370"/>
                        </Array>
                    </mxGeometry>
                </mxCell>
                <mxCell id="kDRodgGSKjIkdje-eJfW-9" value="&lt;i&gt;последовательный вывод каждого элемента массива:&lt;/i&gt;&lt;br&gt;array [ i ]" style="shape=document;perimeter=parallelogramPerimeter;whiteSpace=wrap;html=1;fixedSize=1;" parent="YF1NSrzZtT_zNt7OF7iu-1" vertex="1">
                    <mxGeometry x="730" y="450" width="220" height="100" as="geometry"/>
                </mxCell>
                <mxCell id="kDRodgGSKjIkdje-eJfW-10" value="Да" style="text;html=1;strokeColor=none;fillColor=none;align=center;verticalAlign=middle;whiteSpace=wrap;rounded=0;" parent="YF1NSrzZtT_zNt7OF7iu-1" vertex="1">
                    <mxGeometry x="770" y="420" width="60" height="30" as="geometry"/>
                </mxCell>
                <mxCell id="kDRodgGSKjIkdje-eJfW-11" value="Нет" style="text;html=1;strokeColor=none;fillColor=none;align=center;verticalAlign=middle;whiteSpace=wrap;rounded=0;" parent="YF1NSrzZtT_zNt7OF7iu-1" vertex="1">
                    <mxGeometry x="930" y="330" width="60" height="30" as="geometry"/>
                </mxCell>
                <mxCell id="kDRodgGSKjIkdje-eJfW-12" value="End" style="ellipse;whiteSpace=wrap;html=1;" parent="YF1NSrzZtT_zNt7OF7iu-1" vertex="1">
                    <mxGeometry x="780" y="570" width="120" height="80" as="geometry"/>
                </mxCell>
            </root>
        </mxGraphModel>
    </diagram>
</mxfile>